<?xml version="1.0" encoding="iso-8859-1"?>
<!-- Uploaded to: SVG Repo, www.svgrepo.com, Generator: SVG Repo Mixer Tools -->
<!DOCTYPE svg PUBLIC "-//W3C//DTD SVG 1.1//EN" "http://www.w3.org/Graphics/SVG/1.1/DTD/svg11.dtd">
<svg fill="#000000" version="1.1" id="Capa_1" xmlns="http://www.w3.org/2000/svg" xmlns:xlink="http://www.w3.org/1999/xlink" 
	 width="800px" height="800px" viewBox="0 0 46.055 46.055"
	 xml:space="preserve">
<g>
	<g>
		<path d="M33.453,26.969H12.604c-0.839,0-1.52,0.665-1.52,1.505c0,0.838,0.68,1.504,1.52,1.504h20.849
			c0.839,0,1.52-0.666,1.52-1.504C34.973,27.634,34.293,26.969,33.453,26.969z"/>
		<path d="M45.752,37.209l-1.673-6.479V9.09c0-2.9-2.374-5.284-5.276-5.284H7.253c-2.902,0-5.275,2.384-5.275,5.284v21.64
			l-1.676,6.479c-0.467,1.095-0.389,2.381,0.206,3.397c0.594,1.02,1.625,1.643,2.731,1.643h39.578c1.106,0,2.136-0.623,2.729-1.643
			C46.142,39.59,46.219,38.304,45.752,37.209z M6.042,9.09c0-0.667,0.543-1.221,1.211-1.221h31.55c0.668,0,1.212,0.554,1.212,1.221
			v21.64c0,0.668-0.544,1.198-1.212,1.198H7.253c-0.668,0-1.212-0.53-1.212-1.198L6.042,9.09L6.042,9.09z"/>
		<path d="M34.316,11.448c-0.833-1.045-4.373-0.841-6.04,0.428l-1.261,1.005l-11.143-0.93c-0.474-0.039-0.907,0.268-1.029,0.727
			l-0.21,0.798c-0.101,0.379,0.035,0.781,0.344,1.022l4.773,4.175l-2.421,1.93l-5.001-0.41c-0.298-0.024-0.571,0.169-0.648,0.458
			l-0.133,0.502c-0.063,0.239,0.022,0.492,0.216,0.645l2.611,2.044c-0.003,0.375,0.105,0.754,0.338,1.083
			c0.591,0.838,1.75,1.039,2.588,0.447c0,0,11.657-8.32,15.604-11.004C33.297,14.102,35.149,12.492,34.316,11.448z"/>
	</g>
</g>
</svg>